<?xml version="1.0" encoding="UTF-8" standalone="no"?>
<svg
   xmlns:dc="http://purl.org/dc/elements/1.1/"
   xmlns:cc="http://creativecommons.org/ns#"
   xmlns:rdf="http://www.w3.org/1999/02/22-rdf-syntax-ns#"
   xmlns:svg="http://www.w3.org/2000/svg"
   xmlns="http://www.w3.org/2000/svg"
   xmlns:sodipodi="http://sodipodi.sourceforge.net/DTD/sodipodi-0.dtd"
   xmlns:inkscape="http://www.inkscape.org/namespaces/inkscape"
   version="1.1"
   id="Capa_1"
   x="0px"
   y="0px"
   viewBox="0 0 332 332"
   style="enable-background:new 0 0 332 332;"
   xml:space="preserve"
   sodipodi:docname="Prevoyance_sante.svg"
   inkscape:version="1.0.2-2 (e86c870879, 2021-01-15)"><metadata
   id="metadata34"><rdf:RDF><cc:Work
       rdf:about=""><dc:format>image/svg+xml</dc:format><dc:type
         rdf:resource="http://purl.org/dc/dcmitype/StillImage" /></cc:Work></rdf:RDF></metadata><defs
   id="defs32" /><sodipodi:namedview
   pagecolor="#ffffff"
   bordercolor="#666666"
   borderopacity="1"
   objecttolerance="10"
   gridtolerance="10"
   guidetolerance="10"
   inkscape:pageopacity="0"
   inkscape:pageshadow="2"
   inkscape:window-width="1920"
   inkscape:window-height="986"
   id="namedview30"
   showgrid="false"
   inkscape:snap-bbox="true"
   inkscape:snap-global="true"
   showguides="false"
   inkscape:zoom="2.4096386"
   inkscape:cx="166"
   inkscape:cy="123.24667"
   inkscape:window-x="-11"
   inkscape:window-y="-11"
   inkscape:window-maximized="1"
   inkscape:current-layer="Capa_1" />
<g
   id="g27"
   transform="matrix(1.7692574,0,0,1.7714744,-127.4892,-127.23473)">
	<g
   id="g25">
		<path
   d="M 252.4,130 H 202 V 79.6 c 0,-4 -3.2,-7.2 -7.2,-7.2 h -57.6 c -4,0 -7.2,3.2 -7.2,7.2 V 130 H 79.6 c -4,0 -7.2,3.2 -7.2,7.2 v 57.6 c 0,4 3.2,7.2 7.2,7.2 H 130 v 50.4 c 0,4 3.2,7.2 7.2,7.2 h 57.6 c 4,0 7.2,-3.2 7.2,-7.2 V 202 h 50.4 c 4,0 7.2,-3.2 7.2,-7.2 v -57.6 c -0.4,-4 -3.6,-7.2 -7.2,-7.2 z m -6.8,57.6 h -0.4 -50.4 c -4,0 -7.2,3.2 -7.2,7.2 v 50.4 h -43.2 v -50.4 c 0,-4 -3.2,-7.2 -7.2,-7.2 H 86.8 v -43.2 h 50.4 c 4,0 7.2,-3.2 7.2,-7.2 V 86.8 H 188 v 50.4 c 0,4 3.2,7.2 7.2,7.2 h 50.4 z"
   id="path23" />
	</g>
</g>
</svg>
